<svg xmlns="http://www.w3.org/2000/svg" width="80" height="70" viewBox="0 0 112.58 111.336"><defs><style>.a{fill:#fff;}.b{fill:#232e58;}.c{fill:#f51d30;}.d{fill:#001e64;}</style></defs><path class="a" d="M219.173,320.985a4.857,4.857,0,0,1,4.685,3.142l6.473-3.927v3.25l-5.985,3.629v2.654h5.985V332.5H214v-5.741C214,323.558,215.842,320.985,219.173,320.985Zm-2.762,8.748h5.5v-2.762c0-1.923-.921-3.2-2.735-3.2-1.787,0-2.762,1.3-2.762,3.2Z" transform="translate(-156.044 -233.482)"/><path class="a" d="M293.3,188.285a4.857,4.857,0,0,1,4.685,3.142l6.473-3.927v3.25l-6.012,3.656v2.654h5.985v2.762H288.1v-5.741C288.127,190.858,289.969,188.285,293.3,188.285Zm-2.762,8.775h5.5V194.3c0-1.923-.921-3.2-2.735-3.2-1.787,0-2.762,1.3-2.762,3.2v2.762Z" transform="translate(-210.076 -136.721)"/><path class="a" d="M304.774,108.873v.081l-9.858,4.008,9.858,3.981v.081L288.2,123.551v-3.087l9.777-3.575-9.777-3.873v-.081l9.777-3.873-9.777-3.6V102.4Z" transform="translate(-210.149 -74.668)"/><path class="a" d="M303.8,48v3.033l-2.952,1.3v6.852l2.952,1.3v2.952l-16.6-7.691v-.081Zm-5.254,10.183V53.254l-5.66,2.464Z" transform="translate(-209.419 -35)"/><path class="a" d="M297.806,5.985h6.8V8.748H297.86l-9.56,5.985v-3.2l6.743-4.144L288.3,3.25V0Z" transform="translate(-210.222)"/><path class="a" d="M11.456,249.533l-1.462,2.275a6.21,6.21,0,0,0-4.062-1.462c-1.625,0-2.708.677-2.708,2.167,0,1.219.785,1.733,3.385,2.275,4.089.867,5.5,2.3,5.5,4.821,0,3.033-2.275,5.091-5.985,5.091A9,9,0,0,1,0,262.56l1.517-2.3a6.844,6.844,0,0,0,4.712,1.9c1.9,0,3.114-.812,3.114-2.275,0-1.192-.921-1.842-3.521-2.383-4.089-.894-5.389-2.41-5.389-4.821,0-2.9,2.194-4.875,5.525-4.875A8.993,8.993,0,0,1,11.456,249.533Z" transform="translate(0 -180.69)"/><path class="a" d="M117.818,264.4h-3.033l-1.3-2.952h-6.852l-1.3,2.952H102.3l7.691-16.6h.081Zm-10.21-5.227h4.929l-2.465-5.66Z" transform="translate(-74.595 -180.69)"/><path class="a" d="M68.608,262.658H62.162v-4.5h6.012v-2.437H62.162v-4.279H68.5V248.9H59.4v16.3h9.208Z" transform="translate(-43.313 -181.492)"/><path class="a" d="M172.889,251.446h6.039V248.9H170.1v16.3h2.789v-6.8h5.471v-2.465h-5.471Z" transform="translate(-124.033 -181.492)"/><path class="a" d="M216.546,384.566V378.5H214v8.829h16.331v-2.762h-6.825V379.1h-2.437v5.471Z" transform="translate(-156.044 -275.993)"/><g transform="translate(57.55 67.11)"><path class="a" d="M212.5,256.3v-.054a8.545,8.545,0,0,1,17.089-.054v.054a8.545,8.545,0,0,1-17.089.054Zm14.164,0v-.054a5.66,5.66,0,0,0-5.66-5.823A5.57,5.57,0,0,0,215.4,256.2v.054a5.66,5.66,0,0,0,5.66,5.823A5.57,5.57,0,0,0,226.664,256.3Z" transform="translate(-212.5 -247.8)"/></g><g transform="translate(77.699 67.11)"><path class="a" d="M286.9,256.3v-.054a8.545,8.545,0,0,1,17.089-.054v.054a8.366,8.366,0,0,1-8.558,8.45A8.283,8.283,0,0,1,286.9,256.3Zm14.164,0v-.054a5.66,5.66,0,0,0-5.66-5.823A5.57,5.57,0,0,0,289.8,256.2v.054a5.66,5.66,0,0,0,5.66,5.823A5.57,5.57,0,0,0,301.064,256.3Z" transform="translate(-286.9 -247.8)"/></g><path class="a" d="M304,325.2v.081l-10.562,10.535H303.7v2.762H287.1V338.5l10.291-10.535h-10.02V325.2Z" transform="translate(-209.347 -237.128)"/><path class="b" d="M195.7,179.4" transform="translate(-142.7 -130.814)"/><path class="a" d="M230.256,166.4,213.6,169.921V170l11.456,5.714L213.6,181.458v.081l16.656,3.494v-2.844l-8.937-1.679,8.937-4.739v-.081l-8.937-4.739,8.937-1.679Z" transform="translate(-155.752 -121.335)"/><rect class="a" width="8.314" height="5.85" transform="translate(101.478 40.515)"/><rect class="a" width="8.314" height="5.877" transform="translate(101.478 22.587)"/><rect class="c" width="8.314" height="16.71" transform="translate(101.478 5.877)"/><rect class="c" width="8.314" height="16.71" transform="translate(101.478 46.365)"/><rect class="d" width="8.314" height="12.079" transform="translate(101.478 28.464)"/><g transform="translate(98.715 67.381)"><path class="a" d="M378.366,256.952c0,5.146-3.25,8.179-8.829,8.179H364.5V248.8h5.037C375.089,248.8,378.366,251.806,378.366,256.952Zm-11.1-5.579v11.185h2.194c3.981,0,6.094-2.058,6.094-5.606,0-3.521-2.167-5.579-6.094-5.579Z" transform="translate(-364.5 -248.8)"/></g></svg>