<svg data-name="Layer 1" xmlns="http://www.w3.org/2000/svg" viewBox="0 0 17 17"><path d="M13.64 8.5a5.14 5.14 0 0 1-10.28 0 5.54 5.54 0 0 1 .1-1H0v6.84A2.65 2.65 0 0 0 2.65 17h11.68A2.65 2.65 0 0 0 17 14.36V7.51h-3.46a5.54 5.54 0 0 1 .1.99zm.71-8.5H2.65A2.65 2.65 0 0 0 0 2.65v2.88h4.31a5.13 5.13 0 0 1 7.14-1.23 5 5 0 0 1 1.24 1.23H17V2.65A2.65 2.65 0 0 0 14.35 0zm1.29 3.28a.5.5 0 0 1-.48.48h-1.42a.5.5 0 0 1-.48-.48V1.86a.5.5 0 0 1 .48-.48h1.42a.5.5 0 0 1 .48.48zm-4 5.22a3.16 3.16 0 1 0-3.14 3.16 3.16 3.16 0 0 0 3.16-3.16z" fill="#fff"/></svg>