<svg data-name="Layer 1" xmlns="http://www.w3.org/2000/svg" viewBox="0 0 18.38 14.92"><path d="M18.37 1.75a7.65 7.65 0 0 1-2.15.6A3.65 3.65 0 0 0 17.87.28a7.39 7.39 0 0 1-2.39.91 3.77 3.77 0 0 0-6.49 2.58 4.19 4.19 0 0 0 .09.86A10.76 10.76 0 0 1 1.29.69a3.76 3.76 0 0 0 1.16 5 3.45 3.45 0 0 1-1.69-.48 3.77 3.77 0 0 0 3 3.69 3.77 3.77 0 0 1-1 .14 4.36 4.36 0 0 1-.72 0 3.77 3.77 0 0 0 3.51 2.61 7.45 7.45 0 0 1-4.66 1.61 6.69 6.69 0 0 1-.9-.04 10.69 10.69 0 0 0 16.49-8.88v-.13-.48a7.06 7.06 0 0 0 1.89-1.98z" fill="#fff"/></svg>