<svg xmlns="http://www.w3.org/2000/svg" width="122" height="68" viewBox="0 0 122 68">
  <g id="logo" transform="translate(-69.323 -153.23)">
    <g id="Group_12" data-name="Group 12">
      <path id="Path_5" data-name="Path 5" d="M190.555,183.229a24.031,24.031,0,0,0-3.43,3.71c-.421.585-.961,1.074-2.65.749-11.086-2.086-21.151-2.133-34.3.952a106.045,106.045,0,0,1-28.026,3.148c-13.719-.532-22.8-4.984-24.856-10.829-.585-1.693-1.983-.84-3.161.5a28.217,28.217,0,0,1-3.95,3.611c-6.464,5.056-15.334,6.355-20.2,3.547-.895-.516-.987-1.447.393-1.166,7.788,1.585,15.7-3.3,21.893-13.58,4.244-7.049,4.108-11.192,5.02-11.907,1.155-.889,5.362-1.914,7.406-2.045,1.164-.077,1.866.462,1.551,1a23.4,23.4,0,0,0-1.928,3.906c-.453,1.182.581,1.157,1.762.169,8.657-7.527,16.679-11.06,27.128-11.727,4.648-.3,2.741,1.17,1.7,2.842-1.555,2.477-2.637,3.314-4.029,3.314,0,0-14.418-.789-23.346,8.8-8.38,9,.545,18.763,11.113,20.12,19.047,2.45,28.407-6.026,49.764-8.843,8.616-1.135,17.126-.273,21.4,1.348,1.168.443,2.326.993.748,2.379m-33.648-12.356c-.711.1-1.293-1.644-.493-3.333,1.3-2.727,2.929-3.658,4.152-3.669,1.039-.016.75,1.535-.2,3.181-1.087,1.9-2.641,3.712-3.463,3.821m-30.46,3.111c-1.659,2.56-3.707,4.445-5.794,4.529s-1.994-3.343.2-6.493c1.915-2.735,4.383-4.3,5.911-3.985,1.68.352,2.18,2.112-.321,5.948m26.2,1.771a1.642,1.642,0,0,1,1.715-.111,9.236,9.236,0,0,0,4.6.262,16.593,16.593,0,0,0,8.545-3.552c.542-.454.851-.322,1.014.265.3,1.06,2.174,2.26,4.826,1.822,4.3-.714,6.952-2.1,10.434-6.022a6.853,6.853,0,0,1,3.048-2.217c1.467-.581,1.182-1.525.5-1.385-.719.158-1.457-.355-2.021-1.595a2.23,2.23,0,0,0-3.374-1.16c-1.568.731-2.134,1.922-1.49,2.536,1.067,1.012,1.49,1.834,1.016,2.868a7.87,7.87,0,0,1-3.734,3.85c-1.508.834-4.117.617-4.074-1.075s.551-3.4,2.668-6.449c.557-.805.283-1.4-.388-1.4a11.443,11.443,0,0,0-2.558.24,5.037,5.037,0,0,0-1.788,1.179,12.207,12.207,0,0,0-2.755,4.219,6.087,6.087,0,0,1-2.326,3.066,12.153,12.153,0,0,1-6.078,2.16,2.938,2.938,0,0,1-2.289-.472.717.717,0,0,1,.28-.942,14.759,14.759,0,0,0,4.029-3.12c1.4-1.428,2.6-3.256,2.207-4.592-.542-1.888-2.672-2.569-5.379-2.011a10.884,10.884,0,0,0-8.3,7.1,5.321,5.321,0,0,0,.623,4.418.876.876,0,0,1-.218,1.316,7.578,7.578,0,0,1-4.136,1.138c-3.392.173-5.046-2.816-1.994-8.028,3.606-6.161,6.6-8.5,10.985-11.057,1.284-.745,1.382-1.949.355-2.051a28.327,28.327,0,0,1-4.888-1.04c-1.256-.367-3.063.462-4.026,1.433a33.524,33.524,0,0,0-8.166,12.693c-1.059,2.769-1.6,5.243-.6,8.019a1,1,0,0,1-.427,1.359,8.942,8.942,0,0,1-2.351.815c-3.068.734-5.224-.611-4.846-3.923s3.112-5.764,3.765-6.576-.227-1.364-.995-1.169a5.98,5.98,0,0,1-3.872-.066c-.961-.435-3.5-1.442-8.772,0s-8.85,5.4-9.313,9.849c-.436,4.1,2.247,6.46,6.694,5.923a16.264,16.264,0,0,0,5.93-1.794c1.254-.744,2.045-.606,3.452.332,1.764,1.17,6.009,1.276,10.1-1.253q.6-.363,1.1-.743a2.256,2.256,0,0,1,2.481-.434c3.332,1.188,7.177.048,10.788-2.623" fill="#cfb26b"/>
      <g id="Group_9" data-name="Group 9">
        <path id="Path_6" data-name="Path 6" d="M105.148,206.907a2,2,0,0,0,1.1.508v.25h-2.838v-.25c.445,0,.65-.155.316-.508l-1.683-1.844-.368.3v1.043c0,.861.111,1.008.82,1.008v.25H99.8v-.25c.71,0,.812-.147.812-1.008v-2.654c0-.862-.1-1.008-.812-1.008v-.25h2.7v.25c-.709,0-.82.146-.82,1.008v1.154l1.8-1.456c.213-.181.743-.706.034-.706v-.25h2.06v.25a2.174,2.174,0,0,0-1.573.706l-1.213.982Z" fill="#cfb26b"/>
        <path id="Path_7" data-name="Path 7" d="M107.506,207.665v-.25c.709,0,.812-.147.812-1.008v-2.654c0-.862-.1-1.008-.812-1.008v-.25h2.7v.25c-.709,0-.82.146-.82,1.008v2.654c0,.861.111,1.008.82,1.008v.25Z" fill="#cfb26b"/>
        <path id="Path_8" data-name="Path 8" d="M115.735,206.313c.752.835,1.076,1.034,1.6,1.1v.25h-1.855l-1.521-2.266h-.248v1.008c0,.861.111,1.008.82,1.008v.25h-2.7v-.25c.71,0,.812-.147.812-1.008v-2.654c0-.862-.1-1.008-.812-1.008v-.25h2.863a1.547,1.547,0,0,1,1.727,1.456,1.506,1.506,0,0,1-1.513,1.447Zm-.462-2.361a1,1,0,0,0-1.094-1.068h-.47v2.127h.47A1,1,0,0,0,115.274,203.952Z" fill="#cfb26b"/>
        <path id="Path_9" data-name="Path 9" d="M122.015,205.778v-.25h2.521v.25c-.709,0-.811.138-.811,1v.586c-1.008,0-1.367.448-2.222.448a2.733,2.733,0,0,1,0-5.462,2.174,2.174,0,0,1,1.589.732.9.9,0,0,0,.223-.491h.239v1.9h-.248c-.231-1.12-.923-1.723-1.769-1.723-1.171,0-1.5,1.249-1.5,2.318s.333,2.317,1.5,2.317c.666,0,1.282-.276,1.282-1.068C122.819,205.959,122.6,205.778,122.015,205.778Z" fill="#cfb26b"/>
        <path id="Path_10" data-name="Path 10" d="M129.508,206.76c-.2.465-.068.655.641.655v.25h-2.068v-.25c.59,0,.786-.147,1.051-.758l1.854-4.308h.18l1.863,4.308c.239.551.359.758,1.043.758v.25h-2.8v-.25c.752,0,.837-.2.641-.655l-.359-.818h-1.692Zm1.2-2.782-.675,1.576h1.359Z" fill="#cfb26b"/>
        <path id="Path_11" data-name="Path 11" d="M135.964,206.76c-.2.465-.068.655.641.655v.25h-2.068v-.25c.59,0,.786-.147,1.051-.758l1.854-4.308h.18l1.863,4.308c.239.551.359.758,1.043.758v.25h-2.8v-.25c.752,0,.837-.2.641-.655l-.359-.818h-1.692Zm1.2-2.782-.675,1.576h1.358Z" fill="#cfb26b"/>
        <path id="Path_12" data-name="Path 12" d="M141.843,207.811h-.248v-1.9h.248a1.725,1.725,0,0,0,1.581,1.508.787.787,0,0,0,.855-.853,1.062,1.062,0,0,0-.633-.87l-.82-.431a1.7,1.7,0,0,1-1.153-1.628,1.4,1.4,0,0,1,1.487-1.292,1.587,1.587,0,0,1,1.043.354.737.737,0,0,0,.248-.4h.239v1.9h-.248c-.06-.689-.333-1.473-1.23-1.473a.678.678,0,0,0-.693.689,1.13,1.13,0,0,0,.684.879l.82.422a1.808,1.808,0,0,1,1.1,1.525,1.627,1.627,0,0,1-1.7,1.568,3.767,3.767,0,0,1-1.333-.405A.732.732,0,0,0,141.843,207.811Z" fill="#cfb26b"/>
        <path id="Path_13" data-name="Path 13" d="M151.815,203.71h-.248l-.043-.172c-.111-.457-.2-.654-.991-.654h-.855v3.524c0,.861.111,1.008.82,1.008v.25h-2.7v-.25c.709,0,.812-.147.812-1.008v-3.524h-.854c-.778,0-.872.2-.983.654l-.042.172h-.256l.077-1.214h5.2Z" fill="#cfb26b"/>
        <path id="Path_14" data-name="Path 14" d="M153.469,206.76c-.2.465-.068.655.641.655v.25h-2.068v-.25c.59,0,.786-.147,1.051-.758l1.854-4.308h.18l1.863,4.308c.239.551.359.758,1.043.758v.25h-2.8v-.25c.752,0,.837-.2.641-.655l-.359-.818h-1.692Zm1.2-2.782-.675,1.576h1.358Z" fill="#cfb26b"/>
        <path id="Path_15" data-name="Path 15" d="M159.347,207.811H159.1v-1.9h.248a1.725,1.725,0,0,0,1.58,1.508.787.787,0,0,0,.855-.853,1.061,1.061,0,0,0-.632-.87l-.82-.431a1.7,1.7,0,0,1-1.153-1.628,1.4,1.4,0,0,1,1.486-1.292,1.588,1.588,0,0,1,1.043.354.734.734,0,0,0,.248-.4h.239v1.9h-.248c-.06-.689-.334-1.473-1.23-1.473a.678.678,0,0,0-.693.689,1.129,1.129,0,0,0,.684.879l.82.422a1.808,1.808,0,0,1,1.1,1.525,1.627,1.627,0,0,1-1.7,1.568,3.767,3.767,0,0,1-1.333-.405A.729.729,0,0,0,159.347,207.811Z" fill="#cfb26b"/>
        <path id="Path_16" data-name="Path 16" d="M169.32,203.71h-.248l-.043-.172c-.111-.457-.2-.654-.991-.654h-.855v3.524c0,.861.111,1.008.82,1.008v.25h-2.7v-.25c.709,0,.812-.147.812-1.008v-3.524h-.855c-.778,0-.872.2-.983.654l-.043.172h-.256l.077-1.214h5.2Z" fill="#cfb26b"/>
      </g>
      <g id="Group_11" data-name="Group 11">
        <g id="Group_10" data-name="Group 10">
          <path id="Path_17" data-name="Path 17" d="M118.637,220.917v-.387a2.778,2.778,0,0,0,.768-.083.744.744,0,0,0,.42-.3,1.615,1.615,0,0,0,.21-.635,7.777,7.777,0,0,0,.064-1.133v-2.818a2.539,2.539,0,0,0-.348-1.62,1.957,1.957,0,0,0-1.407-.369v-.387l3.033-.608v5.8a7.855,7.855,0,0,0,.064,1.133,1.607,1.607,0,0,0,.21.635.745.745,0,0,0,.421.3,2.778,2.778,0,0,0,.768.083v.387Z" fill="#cfb26b"/>
          <path id="Path_18" data-name="Path 18" d="M131.6,220.521a3.3,3.3,0,0,1-2.128.709,3.536,3.536,0,0,1-1.133-.184,3.307,3.307,0,0,1-.977-.515,2.539,2.539,0,0,1-.667-.746,1.7,1.7,0,0,1-.238-.856,1.875,1.875,0,0,1,.557-1.418,4.626,4.626,0,0,1,1.453-.9,5.837,5.837,0,0,1-1.151-.9,1.463,1.463,0,0,1-.438-1.032,1.768,1.768,0,0,1,.776-1.455,2.925,2.925,0,0,1,1.818-.589,3.093,3.093,0,0,1,1.827.553,1.6,1.6,0,0,1,.785,1.326,1.382,1.382,0,0,1-.5,1.059,4.888,4.888,0,0,1-1.288.8,6.688,6.688,0,0,1,1.617,1.022,1.793,1.793,0,0,1,.576,1.391A2.153,2.153,0,0,1,131.6,220.521Zm-.831-2.569a7.8,7.8,0,0,0-1.48-.9l-.219-.11a3.555,3.555,0,0,0-1,.819,1.8,1.8,0,0,0-.365,1.17,1.519,1.519,0,0,0,.475,1.151,1.807,1.807,0,0,0,1.3.451,1.9,1.9,0,0,0,1.315-.442,1.4,1.4,0,0,0,.493-1.086A1.312,1.312,0,0,0,130.768,217.952Zm-.3-4.31a1.488,1.488,0,0,0-1-.331,1.462,1.462,0,0,0-.978.331,1.023,1.023,0,0,0-.393.811,1.127,1.127,0,0,0,.439.875,5.963,5.963,0,0,0,1.151.746,2.483,2.483,0,0,0,.841-.672,1.483,1.483,0,0,0,.329-.948A1.022,1.022,0,0,0,130.466,213.642Z" fill="#cfb26b"/>
          <path id="Path_19" data-name="Path 19" d="M141.474,218.578a4.542,4.542,0,0,1-.676,1.391,3.351,3.351,0,0,1-1,.93,2.35,2.35,0,0,1-1.206.331,2.316,2.316,0,0,1-1.188-.331,3.347,3.347,0,0,1-1.005-.93,4.552,4.552,0,0,1-.676-1.391,5.912,5.912,0,0,1,0-3.315,4.551,4.551,0,0,1,.667-1.381,3.248,3.248,0,0,1,1-.921,2.342,2.342,0,0,1,2.4,0,3.358,3.358,0,0,1,1,.93,4.562,4.562,0,0,1,.676,1.382,5.649,5.649,0,0,1,.238,1.648A5.741,5.741,0,0,1,141.474,218.578Zm-1.535-4.263a1.4,1.4,0,0,0-2.686.009,7.615,7.615,0,0,0,0,5.194,1.4,1.4,0,0,0,2.686,0,7.64,7.64,0,0,0,0-5.2Z" fill="#cfb26b"/>
          <path id="Path_20" data-name="Path 20" d="M150.425,219.628a2.7,2.7,0,0,1-1.47,1.4,2.83,2.83,0,0,1-1.069.2,3.088,3.088,0,0,1-.978-.175,2.882,2.882,0,0,1-1-.6,3.141,3.141,0,0,1-.786-1.179,4.948,4.948,0,0,1-.311-1.879,6.906,6.906,0,0,1,.22-1.722,5.473,5.473,0,0,1,.649-1.548,3.5,3.5,0,0,1,1.041-1.1,2.412,2.412,0,0,1,1.361-.406,2.66,2.66,0,0,1,1.453.387q.612.386.612.792a.4.4,0,0,1-.2.35.453.453,0,0,1-.2.055c-.11,0-.268-.1-.475-.313a2.464,2.464,0,0,0-.511-.433,1.247,1.247,0,0,0-.658-.157,1.289,1.289,0,0,0-.831.286,2.245,2.245,0,0,0-.594.755,4.711,4.711,0,0,0-.374,1.059,7.249,7.249,0,0,0-.174,1.252,1.635,1.635,0,0,1,.685-.433,2.654,2.654,0,0,1,.941-.175,3,3,0,0,1,1.078.2,3.093,3.093,0,0,1,.932.553,2.643,2.643,0,0,1,.639.828,2.214,2.214,0,0,1,.238.994A2.359,2.359,0,0,1,150.425,219.628Zm-1.5-2.284a1.4,1.4,0,0,0-1.169-.571,2.4,2.4,0,0,0-1.06.24,1.109,1.109,0,0,0-.621.626,3.969,3.969,0,0,0,.557,2.145,1.5,1.5,0,0,0,1.251.765,1.226,1.226,0,0,0,1.105-.589,2.42,2.42,0,0,0,.374-1.326A2.061,2.061,0,0,0,148.928,217.344Z" fill="#cfb26b"/>
        </g>
      </g>
    </g>
  </g>
</svg>
